<svg version="1.1" id="Calque_1" xmlns="http://www.w3.org/2000/svg" x="0" y="0" viewBox="0 0 960 560" style="enable-background:new 0 0 960 560" xml:space="preserve"><style>.st2{fill:#624a7e}</style><path class="st2" d="M226.4 80.8c-25.2.9-49.9 4.4-73.1 12-23.2 7.5-44.6 19-63.2 33.9-9.2 7.5-17.8 15.8-25.3 24.8-7.7 9-14.3 18.8-20 29.1-2.9 5.2-5.4 10.5-7.8 15.9-2.4 5.4-4.4 10.9-6.2 16.5-1.8 5.6-3.3 11.3-4.6 17.1-1.3 5.8-2.2 11.6-2.9 17.5-.7 5.9-1.1 11.8-1.2 17.7 0 5.9.2 11.8.8 17.7.6 5.9 1.5 11.8 2.7 17.6 1.2 5.8 2.7 11.6 4.5 17.3 7.1 22.8 18.9 44.2 34.6 62.5 15.7 18.3 35.2 33.5 57.2 44.5 11 5.5 22.5 10 34.5 13.5 6 1.8 12 3.3 18.1 4.6 6.1 1.3 12.3 2.3 18.5 3.2-6.3 0-12.6-.3-18.9-.8-6.3-.5-12.6-1.3-18.8-2.4-12.5-2.2-24.9-5.7-36.8-10.3-23.9-9.3-46.2-23.8-64.3-42.6-18.2-18.7-32.4-41.5-41.4-66.3-4.5-12.4-7.7-25.3-9.5-38.4-.9-6.6-1.4-13.2-1.6-19.9-.2-6.6 0-13.3.5-19.9 2.1-26.5 10-52.6 23.2-75.7 6.5-11.6 14.4-22.4 23.3-32.3 8.9-9.8 18.8-18.8 29.6-26.4 21.5-15.4 46.3-25.8 71.7-30.8 12.7-2.5 25.6-3.7 38.4-3.6 6.4.1 12.8.3 19.1 1 1.6.1 3.2.4 4.7.6 1.6.2 3.1.4 4.7.7 3.3.4 6.4 1 9.5 1.7z"/><path class="st2" d="M116.6 399c4.7 6.7 9.9 13 15.9 18.2 6 5.3 12.7 9.7 19.8 13.1 14.4 6.7 30.3 9.3 46.2 9.4 15.9.1 31.9-2.2 47.7-5.7 3.9-.9 7.9-1.9 11.8-2.9 3.9-1 7.8-2.1 11.7-3.3 7.8-2.3 15.5-4.9 23.2-7.7-7 4.2-14.5 7.6-22.1 10.8-7.6 3.1-15.4 5.9-23.3 8.1-15.8 4.6-32.3 7.4-49 7.3-4.2 0-8.3-.2-12.5-.7-4.2-.5-8.3-1.1-12.4-2-4.1-.9-8.2-2.1-12.1-3.5-3.9-1.4-7.8-3.2-11.5-5.2s-7.2-4.3-10.5-6.9c-3.3-2.6-6.4-5.4-9.2-8.5-5.7-6.1-10.3-13.1-13.7-20.5z"/><path class="st2" d="M301.6 336.8c-11.6 14-35.2 29.3-50.7 38.4.5 7.9 1.2 16.7 2 24.3 1 10.1 1.7 12.3 2.2 12.5 1.7 3-2.2 5.9-4.2 3-.7-.2-1.7-1.7-3.2-13.5-.7-6.6-1.5-14.8-2-23.4-7.4 4.4-12.8 7.4-19.2 10.8-2.2 1-4.4-2.7-1.7-3.7 6.1-4.2 14-8.1 20.7-12.3-.5-8.1-.5-15-.5-20.9.5-11.1 1.5-14 2.7-15.5 1.7-3 6.1 0 4.4 3 0 0-1.2 1.7-1.5 12.5-.5 4.7 0 10.6 0 17.7 14.3-8.9 36.1-23.4 46.7-36.1 3-3.4 6.4-8.6 5.9-12.5 0-2.2-1.5-4.9-5.9-7.1-7.4-3.7-18.7-4.7-26.8-4.7-20.7-.7-45.5 2.5-64.9 6.9-10.1 2.2-25.6 6.4-34.4 11.6-1.7 1-6.6 3.9-6.1 6.6 1 3.2-4.4 4.4-4.9 1-1-3.7 2.2-6.9 5.2-9.1 9.6-6.6 28-11.8 39.6-14.5 20.2-4.7 45-8.1 65.7-7.6 9.1 0 20.9 1 29 5.2 4.9 2.2 8.6 5.9 8.9 11.1.6 5.8-3.3 11.9-7 16.3zM370.2 407.7c-7.1 2-15.5 4.2-22.9 4.4-5.9.5-12.5 0-16-4.7-1.5-2-2.5-4.4-2.5-7.1-2.7 2.2-5.9 4.4-9.3 6.4-3.7 2.2-7.6 3.9-12 5.2-3.7.7-7.4.7-9.6-2-2.7-2.5-2.2-6.9-1.2-10.3 2.7-5.4 8.9-11.1 13.8-14.8 4.4-3.7 11.8-8.4 17.2-8.1 3.4.7 5.2 3.4 4.9 6.4-.5 2.2-1.5 3.7-2.2 3.9-2 2-4.4-.7-3-2.5 0-.5.2-1.5.2-2 0-1-3.2 0-3.9 0-3.4 1.5-7.1 4.2-10.1 6.4-3.9 3.2-9.8 8.1-12 12.5-.7 2.5-.5 4.4 0 5.2.7 1 3.7.7 4.7.7 4.2-1.2 7.9-2.7 11.6-4.4 3.7-2.2 9.1-5.9 12-9.3.7-2.2 2-3.9 3-5.4 1.5-2.2 3-3.7 4.4-4.9 1.5-1 3.4-.7 4.2.5 1 .7 1 2.2.2 3.2-1.5 3-3.2 5.2-5.9 7.4-2.2 4.4-1.7 8.6-.7 10.1 2.2 3.7 8.1 4.4 12.3 4.4 6.6.2 16.2-.5 22.8-1.2z"/><path class="st2" d="M437.3 407.7c-6.6 2.7-15.2 4.4-22.1 4.4-5.7 0-11.1-1.5-15.2-4.7-1.7-2.2-3.7-4.9-4.4-7.9-1 1.2-2.5 2.7-3.7 3.7-5.2 4.4-12.5 9.6-19.2 10.1-3.7 0-6.6-1.2-8.9-3.4-3.7-3.7-3.9-8.4-4.4-13.5 0-5.9.7-15.2 1.2-20.7.2-3.7 5.4-3 5.2.2-.5 8.6-1.2 14.5-1.2 19.9.5 4.4.7 8.1 3 10.1 1.5 1.5 3 2.2 4.9 2.2 5.4 0 12-4.4 16.5-8.1 2.2-2 4.4-4.4 6.4-6.6 0-3.4.7-6.6 1.7-9.3.7-2.5 3.4-2.5 4.9-.7 1.5 2.7.2 6.4-1.5 9.3-.5 3 0 6.1 1.5 8.9 2.5 4.7 8.1 6.6 13.5 7.4 7.1.6 14.7-.1 21.8-1.3z"/><path class="st2" d="M459.7 408.2c-5.2 2.2-12.3 5.2-17.7 5.4-3 .5-5.9.5-8.6-1-1.5-1.2-2.5-2.7-3.7-6.6-1.5-8.1-1.5-23.6-1-31.7 0-9.6 1-28 2.5-37.4.7-3.2 5.7-2.2 5.7 1.2-2 8.1-2.7 28.3-2.7 36.9-.2 7.4-.7 22.9.7 30.2.7 3 .7 3.2 4.2 3.9 3 .5 6.6.5 8.4 0 4.8-.2 9.3-.7 12.2-.9z"/><path class="st2" d="M478.4 408.9c-2.2 1.5-5.4 2.5-7.4 3.2-2.5.7-7.6 2.7-11.8 1.5-3-.7-3.9-3.2-5.2-6.1-1-4.4-1-15.2-1-21.4 0-3.7 5.4-4.2 5.4-.7-.2 6.1-.2 16.5.7 20.7.7 1.5 1.2 2.5 2.7 3.2 1.5 1.5 6.1.7 8.9.5 2.5-.7 5.5-.9 7.7-.9zM460.5 358c.2-1.5 2.2-2.2 3.7-2 1.5.5 2.5 2 2.2 3.4 0 .2-.7 1.5-.7 1.5-.5 1.7 1.5 1.7.2 3.2-.7 1.2-1.7 1.5-3 .7-1-.7-1.7-1.7-2.5-3-.4-2.1.1-3.6.1-3.8zM548 408.2c-4.7 1.7-10.6 3.2-15.7 3.9-4.4 0-8.9 0-13-1.5-7.6-2.5-10.6-10.3-10.3-18.4 0-3.7.7-7.4 2-11.1-4.4 3.4-8.1 7.4-10.8 10.8-3.2 4.4-6.9 9.6-9.8 14-.5.7-3.4 4.7-3.4 4.7-1.5 2.2-4.7 1.2-4.7-1.5 0-4.7.2-9.6 0-14 0-3.7-.5-9.6-1.2-13.3-.7-3.7 4.4-4.7 5.2-1.5.7 4.2 1.2 10.8 1.5 14.8v5.9c2.7-3.9 5.9-8.1 9.3-12 2.2-3 4.7-5.9 10.3-10.3 2.5-2 4.7-3.7 6.6-4.4 3.2-1.5 5.4 1 3.7 3.9 0 0-1.2 3-2.2 6.6-1.5 5.7-2.2 13 .7 17.7 3.2 4.9 9.6 5.9 15.7 5.9 5.5.5 11.4-.2 16.1-.2z"/><path class="st2" d="M595 407.7c-5.7 1.2-11.6 2.7-17.5 3.4-5.9 1-12 2.2-17.9 2.5-5.7.5-14.8.7-19.2-2.5-2-1.5-2.7-3.7-2.7-5.9 0-3.4 1.2-7.1 2.2-10.1 2-4.4 4.4-8.4 7.9-12 3.7-4.2 9.8-8.1 15-8.6 4.2-.2 7.1 2 7.9 5.7 1 4.4-1.5 10.6-4.2 14.3-3.9 5.2-8.9 9.6-14.8 12.3-1.5.7-3 1.5-4.7 2.2 3.7.7 8.9.7 12.5.7 5.9 0 11.8-.5 17.7-.7 6-.6 11.9-.8 17.8-1.3zm-51.7-1c2.2-1.2 4.7-2.2 6.6-3.4 5.2-2.5 9.1-6.6 12-11.3 2-2.7 4.2-7.9 3.4-10.8 0-.7-.7-1.5-2.2-1-2.2.2-7.1 2.2-11.6 6.9-2.5 3-5.2 7.1-6.6 10.3-.8 2.6-2.1 6.6-1.6 9.3zM642.8 402.3c5.9 14 29.5 6.9 43 .2 3-1.5 5.9-3.2 8.6-4.9 1-7.6 3-15.5 5.9-22.9 2-4.4 4.7-9.8 8.4-13.3 2.2-2 4.9-3.2 7.6-2.7 2 .5 3.4 1.7 4.7 3.7 1 1.7 1.7 3.9 1.7 6.4.5 5.7-2 10.8-5.2 15.5-4.4 6.4-10.8 11.8-17.2 16-1 9.3-.2 17 1.7 24.8 1.7 7.1 4.2 13.8 6.1 20.9 2 7.9 3.2 16.7-1 23.6-3 4.7-8.1 7.6-13.3 9.3-9.3 3-20.4 2.7-30.2 1-7.6-1.2-15-3.9-21.1-6.9-6.4-3.2-13-8.1-16.7-14.3 6.1 6.9 16 11.1 24.8 13.5 4.4 1.5 9.1 2.5 13.8 3 8.9 1.2 19.4 1.5 27.8-1.5 3.7-1.5 7.9-3.7 10.1-7.1 3-4.9 1.7-12.3 0-19.2-1.7-6.9-4.4-13.5-6.1-20.9-2.2-7.9-2.7-15-2.5-22.1-1.7 1-3.7 2-5.7 3-18.2 8.6-42 12.3-49.2-3.4-3-6.6-2-16-.5-22.9 2.2-9.6 6.4-19.2 11.6-27.5 7.4-12.3 17.9-25.1 29.3-33.4 4.2-3 8.9-5.7 13.5-7.4 5.4-1.7 11.1-2.5 16.2-.5 5.2 2 9.1 6.1 11.6 11.1 2.5 4.7 3.7 10.1 3.7 14.8.2 2-2.5 2.5-3.2.7-.7-2.7-3.2-9.3-5.2-13-2-3.7-4.7-6.9-8.9-8.4-3.9-1.5-8.4-.7-12.3.7-4.2 1.5-8.4 3.9-12 6.6-10.8 7.9-21.1 19.9-28.3 31.5-4.7 7.6-9.1 17-11.3 25.8-1.7 6.1-2.7 14.5-.2 20.2zm58.8-9.6c4.2-3.2 8.4-7.4 11.3-11.8 2.5-3.2 4.4-7.4 4.2-11.6-.2-1.2-.5-2.5-1-3.4-.7-1.5-1.2-2-3.2 0-3 2.7-5.4 7.6-6.9 11.3-1.7 4.4-3.5 9.6-4.4 15.5zM761.6 406.9c-4.7 4.2-11.3 6.6-17.7 5.9-3.7-.2-6.9-1.5-9.1-4.4-2.7-2.5-3.4-6.1-3-9.8.7-6.4 4.7-12.5 8.9-16.7 1.7-1.7 3.2-3 4.7-3.9 2-1.2 3.7 0 4.2 1.7 1.7-1 3.7-.7 5.4 0 3 1.2 5.9 3.4 7.9 5.9 2.2 2.7 3.9 5.9 3.9 9.3.7 4.6-1.8 8.8-5.2 12zm0-11.8c-.2-2.2-1.5-4.4-3-6.1-1-2-3.2-3.7-5.2-4.4-.7-.5-1.5-.5-1.7-.5 0 .5-1.5 2.7-3.7 1.5-.7-.7-1.2-1-1.5-2.2-2 2-3.7 4.2-5.7 6.4-1.5 2.5-3.2 6.1-3.7 9.6-.2 2.2 0 3.9 1.5 6.1 1.2 2 3.4 3 5.7 3.4 3.9.2 9.8-1.5 14-5.2 2.3-2.2 3.8-5.6 3.3-8.6zM817.4 376.7c-3-.2-6.4-.2-9.3.5-4.7 1-7.6 3.9-10.6 8.1-3 3.7-4.9 8.4-6.4 12.8-1 4.2-1.7 7.4-2.5 10.1-.7 1.7-2 3.7-3.7 4.7-1.5.7-3.7.7-4.9-.2-1.5-1.2-2.5-4.9-3.7-10.3-.7-5.7-1.5-11.8-1.7-15.5-.5-3.7 4.7-4.2 5.2-.5.2 3.4 1 10.1 1.7 15.2.5 1.5 1.2 3.9 1.5 5.9.5-1.2 2-5.9 3.4-10.8 1.5-5.2 3.7-10.3 6.6-14.3 3.7-5.2 8.1-8.6 14-9.6 3.7-.7 7.4-.5 11.1.7 1.7.7 1 3.2-.7 3.2z"/><path class="st2" d="M849.1 408.2c-5.2 2.2-12.3 5.2-17.7 5.4-3 .5-5.9.5-8.6-1-1.5-1.2-2.5-2.7-3.7-6.6-1.5-8.1-1.5-23.6-1-31.7 0-9.6 1-28 2.5-37.4.7-3.2 5.7-2.2 5.7 1.2-2 8.1-2.7 28.3-2.7 36.9-.2 7.4-.7 22.9.7 30.2.7 3 .7 3.2 4.2 3.9 3 .5 6.6.5 8.4 0 4.8-.2 9.2-.7 12.2-.9z"/><path class="st2" d="M867.8 408.9c-2.2 1.5-5.4 2.5-7.4 3.2-2.5.7-7.6 2.7-11.8 1.5-3-.7-3.9-3.2-5.2-6.1-1-4.4-1-15.2-1-21.4 0-3.7 5.4-4.2 5.4-.7-.2 6.1-.2 16.5.7 20.7.7 1.5 1.2 2.5 2.7 3.2 1.5 1.5 6.1.7 8.9.5 2.5-.7 5.5-.9 7.7-.9zm-18-50.9c.2-1.5 2.2-2.2 3.7-2 1.5.5 2.5 2 2.2 3.4 0 .2-.7 1.5-.7 1.5-.5 1.7 1.5 1.7.2 3.2-.7 1.2-1.7 1.5-3 .7-1-.7-1.7-1.7-2.5-3-.4-2.1.1-3.6.1-3.8z"/><path class="st2" d="M922.4 407.7c-5.7 1.2-11.6 2.7-17.5 3.4-5.9 1-12 2.2-17.9 2.5-5.7.5-14.8.7-19.2-2.5-2-1.5-2.7-3.7-2.7-5.9 0-3.4 1.2-7.1 2.2-10.1 2-4.4 4.4-8.4 7.9-12 3.7-4.2 9.8-8.1 15-8.6 4.2-.2 7.1 2 7.9 5.7 1 4.4-1.5 10.6-4.2 14.3-3.9 5.2-8.9 9.6-14.8 12.3-1.5.7-3 1.5-4.7 2.2 3.7.7 8.9.7 12.5.7 5.9 0 11.8-.5 17.7-.7 6-.6 11.9-.8 17.8-1.3zm-51.7-1c2.2-1.2 4.7-2.2 6.6-3.4 5.2-2.5 9.1-6.6 12-11.3 2-2.7 4.2-7.9 3.4-10.8 0-.7-.7-1.5-2.2-1-2.2.2-7.1 2.2-11.6 6.9-2.5 3-5.2 7.1-6.6 10.3-.8 2.6-2.1 6.6-1.6 9.3z"/><path class="st2" d="M956.3 376.7c-3-.2-6.4-.2-9.3.5-4.7 1-7.6 3.9-10.6 8.1-3 3.7-4.9 8.4-6.4 12.8-1 4.2-1.7 7.4-2.5 10.1-.7 1.7-2 3.7-3.7 4.7-1.5.7-3.7.7-4.9-.2-1.5-1.2-2.5-4.9-3.7-10.3-.7-5.7-1.5-11.8-1.7-15.5-.5-3.7 4.7-4.2 5.2-.5.2 3.4 1 10.1 1.7 15.2.5 1.5 1.2 3.9 1.5 5.9.5-1.2 2-5.9 3.4-10.8 1.5-5.2 3.7-10.3 6.6-14.3 3.7-5.2 8.1-8.6 14-9.6 3.7-.7 7.4-.5 11.1.7 1.8.7 1 3.2-.7 3.2z"/><path d="M207.4 78.8h-.8c-105 0-192.9 80.6-192.9 182.9 0 92.2 71.4 168.6 162.8 182.8-40.9-9.4-71.3-46-71.3-89.7 0-50.9 41.3-92.1 92.1-92.1 0 0 6.5-.2 9.7-.2h.4c50.7 0 91.8-41.1 91.8-91.8 0-50.8-41.1-91.9-91.8-91.9zm2.1 115.8c-.9 0-1.8-.1-2.7-.1-12.4-1.3-22-11.8-22-24.5s9.6-23.1 21.9-24.5c.9-.1 1.9-.2 2.8-.2 13.6 0 24.7 11 24.7 24.7 0 13.5-11 24.6-24.7 24.6z" style="fill:#a184b7"/><path class="st2" d="M385.5 258.6c.6-8.9 1.4-17.7 2.3-26.5.5-4.4.9-8.8 1.4-13.2.5-4.4 1-8.8 1.6-13.2 1.2-8.8 2.6-17.5 3.9-26.3 1.3-8.8 2.3-17.6 3.2-26.4l.3-2.7.9 2.5c1.7 4.7 3.5 9.5 5.2 14.3 1.6 4.8 3.1 9.7 4.3 14.6 2.3 9.9 3.5 20.2 2.4 30.5-.3 2.6-.7 5.1-1.3 7.6-.6 2.5-1.3 5-2.3 7.4-1.9 4.8-4.5 9.3-7.3 13.5-5.7 8.4-12.2 16.1-16.2 25.4l-.3-.1c.8-2.4 1.7-4.8 2.9-7 .5-1.2 1.1-2.3 1.7-3.4.6-1.1 1.2-2.2 1.9-3.3 2.6-4.3 5.4-8.6 8-12.8 2.6-4.3 5-8.6 6.6-13.3 1.7-4.6 2.7-9.5 3.2-14.4s.6-9.9.2-14.8c-.3-5-1.1-9.9-2.1-14.8s-2.3-9.7-3.6-14.6c-1.4-4.8-2.9-9.6-4.4-14.5l1.2-.1c-1.3 8.8-2.4 17.6-3.3 26.4-.9 8.8-1.6 17.7-2.5 26.5-.5 4.4-1 8.8-1.6 13.2l-1.8 13.2c-1.2 8.8-2.6 17.5-4.2 26.3h-.3zM376.8 215.2c.8-7.9-1.3-15.4-3.6-22.9-1.1-3.7-2.3-7.5-3.2-11.4-.9-3.9-1.5-7.9-1.6-11.9-.3-8 .9-15.8 1.8-23.6 1-7.8 1.7-15.6 1.7-23.4v-3.2l1.7 2.8c3.9 6.2 6.5 13.2 8.1 20.3.8 3.6 1.4 7.2 1.7 10.8.3 3.6.5 7.3.3 10.9-.2 7.3-1.1 14.5-2.4 21.6-1.3 7.1-3 14.1-4.9 21.1l-.3-.1c1-7.1 2.1-14.2 2.9-21.4.9-7.1 1.5-14.2 1.6-21.3 0-3.5 0-7.1-.4-10.6-.3-3.5-.7-7-1.4-10.5-1.4-6.9-3.6-13.7-6.9-20l1.8-.4c-.6 7.9-1.9 15.7-2.7 23.5-.4 3.9-.7 7.8-.8 11.7-.1 3.9 0 7.8.4 11.7.2 1.9.4 3.8.8 5.7.2 1.9.7 3.8 1.1 5.7.8 3.8 2 7.5 2.9 11.4.5 1.9 1 3.8 1.4 5.8.2 1 .4 2 .5 2.9.1 1 .3 2 .4 3 .2 2 .3 4 .2 6 0 1-.2 2-.3 3-.1 1-.4 2-.5 2.9l-.3-.1zM357.3 167.2c-3.3-3.8-6-8.1-8.2-12.7-2.2-4.5-3.9-9.4-5-14.3-1-5-1.3-10-1.5-15-.1-2.5-.1-5-.1-7.5v-1.9c0-.6 0-1.3.3-2.1s1.1-1.4 2-1.4c1 0 1.6.5 2.2 1 .5.5 1 1 1.3 1.6.4.7.6 1.2.9 1.7.6 1.1 1.1 2.3 1.6 3.4 1 2.3 1.9 4.6 2.8 7 1.7 4.7 3.1 9.6 3.9 14.7.4 2.5.7 5 .8 7.6.1 2.5.1 5 .1 7.5 0 5 .2 9.9 1.5 14.7l-.3.1c-1.1-2.3-1.9-4.7-2.5-7.2-.5-2.5-.9-5-1.1-7.5-.5-5-.7-9.9-1.7-14.7-.8-4.8-2-9.6-3.5-14.3-.7-2.4-1.5-4.7-2.4-7l-1.3-3.5c-.2-.6-.4-1.2-.6-1.7-.2-.5-.5-1-.9-1.4-.3-.4-.8-.7-1.1-.7-.3 0-.7.1-.9.5-.4.8-.4 2.3-.5 3.4-.2 2.5-.1 5 0 7.4.3 5 1.5 9.8 2.9 14.5 1.3 4.7 2.8 9.4 4.7 14 1.8 4.6 4 9 6.4 13.4l.2.4zM330.7 136c-3.8-3.3-7.3-6.9-10.4-11-3-4.1-5.5-8.6-7.1-13.5-1.6-4.9-2.3-9.9-2.7-14.9-.2-2.5-.3-5-.3-7.5s.1-5 .4-7.6l.2-1.8 1.2 1.5c3.2 3.9 6.4 7.9 9.5 11.9 1.5 2 3.1 4 4.5 6.3 1.4 2.2 2.6 4.6 3.5 7.1 1.8 4.9 2.7 10.1 3 15.2.4 5.1.2 10.2-.2 15.3h-.3c-.6-5.1-1.1-10.1-1.8-15.1-.8-5-1.8-9.8-3.6-14.4-.8-2.3-2-4.5-3.2-6.6-1.2-2.1-2.7-4.1-4.2-6.2-2.9-4.1-5.8-8.4-8.5-12.6l1.4-.3c-1 4.8-1.3 9.8-.7 14.8.3 2.5.8 4.9 1.5 7.2.7 2.4 1.5 4.7 2.5 6.9.4 1.1 1 2.2 1.4 3.4.2.6.5 1.1.8 1.7.3.5.5 1.1.8 1.7.6 1.1 1.1 2.2 1.7 3.2.6 1.1 1.2 2.1 1.9 3.1 2.6 4.1 5.8 8 8.8 12l-.1.2z"/><path class="st2" d="M380.8 259.5c-4-5.6-8.2-11-12.6-16.2-4.4-5.2-9.1-10.1-14-14.9-2.5-2.4-4.9-4.7-7.5-7l-3.9-3.3c-1.3-1.1-2.7-2.1-4-3.2-5.4-4.2-11.3-7.8-17.4-10.8l.6-.8c2.6 2.8 5 5.9 7.1 9.1 2.2 3.2 4.2 6.5 6.1 9.8 1.9 3.3 3.8 6.6 5.8 9.8 2 3.2 4.1 6.4 6.3 9.4 4.4 6.1 9.4 11.8 15.4 16.2 3 2.2 6.2 4.1 9.6 5.5 3.4 1.4 7.1 2.3 10.8 2.4l-.7.7c.1-1.7-.1-3.5-.5-5.3-.4-1.7-1.1-3.4-1.9-5l.2-.2c1.1 1.5 1.9 3.1 2.5 4.9.6 1.8 1 3.6 1 5.5v.7h-.7c-3.9.2-7.9-.4-11.6-1.7-3.7-1.3-7.2-3.1-10.5-5.3-6.5-4.4-11.8-10.4-16.2-16.7-4.4-6.4-8.2-13.1-11.7-19.9-1.8-3.4-3.5-6.7-5.5-10-1.9-3.3-4-6.4-6.5-9.3l-1.8-2.1 2.4 1.3c6.1 3.2 12 6.8 17.7 10.6 1.4 1 2.9 1.9 4.3 2.9s2.8 2 4.2 3.1c1.3 1.1 2.7 2.1 4.1 3.2 1.3 1.2 2.6 2.2 3.9 3.4 5.1 4.7 9.7 9.9 13.9 15.4 4.2 5.5 8 11.3 11.2 17.4l-.1.4zM369.8 209c-4.6 1-9.4.5-13.9-.9-4.5-1.5-8.7-3.8-12.3-6.9-3.6-3-6.6-6.6-9.6-10.1-1.5-1.7-3.1-3.4-4.5-5.2-1.4-1.8-2.8-3.8-3.6-6.1l-.7-2.1 2 1.1c2 1.1 3.9 2.2 5.9 2.8 2 .6 4.1.8 6.5 1.2 2.4.5 4.6 1.4 6.7 2.4 2.1 1 4 2.2 6 3.4 7.7 4.9 14.8 10.8 20.6 17.8l-.2.2c-3.6-2.8-7.1-5.5-10.8-8.1-3.7-2.5-7.4-5-11.2-7.2-1.9-1.1-3.8-2.3-5.8-3.3-1.9-1-3.9-1.9-5.9-2.4-2-.5-4.4-.8-6.7-1.7-2.3-.9-4.1-2.3-6-3.7l1.2-.9c.5 2.1 1.5 4.1 2.8 6 1.3 1.8 2.9 3.5 4.4 5.2 3.1 3.3 6.7 6.2 10.4 8.8 1.8 1.3 3.7 2.5 5.6 3.7 1.9 1.1 3.9 2.1 6 3 2.1.8 4.2 1.5 6.4 2s4.4.7 6.7.8v.2zM357 166.8c-4.6 1-9.3 1.1-14 .6-4.7-.5-9.4-1.6-13.7-3.4-4.4-1.8-8.4-4.4-12.2-7-1.9-1.3-3.8-2.7-5.6-4.1-.9-.8-1.8-1.4-2.7-2.3-.9-.8-1.7-1.9-2-3.3-.1-.7-.1-1.5.2-2.2.3-.7.8-1.3 1.3-1.7 1.1-.9 2.6-1.3 3.9-1.4 1.3 0 2.6.2 3.7.4 1.2.2 2.3.5 3.5.8 4.6 1.2 9 3 13.2 5.2 8.3 4.5 15.6 10.4 22.4 16.8l-.2.2c-8-4.8-15.6-10.1-23.7-14.2-4-2.1-8.2-4-12.5-5.3-1.1-.4-2.2-.6-3.3-.9-1.1-.3-2.2-.5-3.2-.6-1-.1-1.9.1-2.7.6-.8.5-1.2 1.2-1.1 2.1.1.9.6 1.8 1.3 2.7.7.8 1.6 1.6 2.5 2.4 1.7 1.5 3.6 2.9 5.5 4.1 3.9 2.5 8.2 4.1 12.6 5.5 4.3 1.4 8.7 2.6 13.2 3.4 4.5.8 9 1.2 13.7 1.3l-.1.3zM380.6 300.3c.9-3.2 2.1-6.3 3.6-9.3 1.5-3 3.2-5.9 5.1-8.6 3.9-5.5 8.7-10.3 14.1-14.3.7-.5 1.4-1 1.9-1.4.5-.5.7-1.1.9-1.9.3-1.7 1.1-3.4 2.2-4.7 1.1-1.4 2.5-2.6 4.2-3.2.9-.3 1.8-.4 2.8-.1.9.3 1.8.8 2.3 1.6.6.8.7 1.9.4 2.8-.3.9-.9 1.6-1.5 2.2-1.2 1.2-2.6 2.2-4.1 3-3 1.6-6.3 2.6-9.6 2.7 3.3-.4 6.5-1.5 9.3-3.2 1.4-.9 2.7-1.9 3.8-3.1.5-.6 1-1.2 1.2-1.9.2-.7.1-1.4-.3-1.9-.4-.6-1-1-1.7-1.1-.7-.2-1.4-.1-2.1.2-1.4.5-2.7 1.6-3.6 2.8-1 1.3-1.6 2.7-1.9 4.3-.1.4-.2.9-.4 1.3-.2.5-.5.9-.8 1.3-.7.7-1.4 1.1-2 1.6-5.4 3.8-10 8.6-14 13.8-2 2.6-3.8 5.4-5.4 8.3-1.9 2.7-3.3 5.7-4.4 8.8zM376.1 311.2c-.7-5.5-2.9-10.6-5.6-15.3-1.4-2.3-2.9-4.6-4.6-6.8-.8-1.1-1.7-2.2-2.5-3.2-.9-1-1.8-2.3-2.5-2.5-.2-.1-.3-.1-.5 0-.2 0-.4.1-.7.3-.6.3-1.4.7-2.2.8-1.6.3-3.2.1-4.6-.7-2.9-1.6-4.2-5.2-2.9-8.2.3-.7.9-1.5 1.7-1.9.8-.4 1.6-.5 2.4-.4 1.5.2 2.9.9 4 1.8s2 2.1 2.7 3.3c.8 1.2 1.4 2.4 1.9 3.7-1.5-2.3-3-4.7-5.2-6.2-1.1-.7-2.3-1.2-3.5-1.3-.6 0-1.2.1-1.6.3-.4.3-.7.7-.9 1.2-.8 2.2.3 5 2.4 6 1 .5 2.3.7 3.4.5.6-.1 1-.3 1.7-.7.3-.2.7-.4 1.2-.5.5-.1 1.1-.1 1.5.1 1 .3 1.6 1 2.1 1.5.5.6.9 1.1 1.3 1.6.9 1.1 1.7 2.2 2.5 3.3 1.6 2.3 3.2 4.6 4.5 7.1 1.3 2.5 2.4 5.1 3.2 7.8.4 2.8.8 5.6.8 8.4z"/><path d="M316.8 123.7c-3.8-2.3-7.8-4.3-11.9-6.1-2.6-1.1-5.4-2.3-6.7-4.8-1.3-2.5.4-6.5 3.2-6.1 1.6.2 2.7 1.8 3.6 3.2 2.1 3.4 4.3 6.8 6.4 10.3" style="fill:none;stroke:#624a7e;stroke-width:.7926;stroke-miterlimit:10"/><path class="st2" d="M301.1 113.2c10.3 5.9 19.9 12.9 28.9 20.9 9 7.9 16.9 17 23.9 26.7 3.6 4.8 6.7 9.9 9.8 15.1l4.3 7.9c.7 1.3 1.3 2.7 2 4l1.9 4.1c.6 1.4 1.3 2.7 1.8 4.1l1.6 4.2 1.6 4.2c.3.7.6 1.4.8 2.1l.7 2.2 2.6 8.6 2.1 8.8.5 2.2.4 2.2.7 4.5.7 4.5c.2 1.5.3 3 .5 4.5l.4 4.5c.1 1.5.3 3 .3 4.5l.2 9c.1 1.5 0 3 0 4.5-.1 1.5-.1 3-.2 4.5-.2 3-.3 6-.7 9-.5 6-1.6 11.9-2.7 17.8-4.9 23.5-14.9 45.8-29 64.8 12.1-20.4 20.6-42.7 24.6-65.7 3.9-23 3.4-46.7-1.3-69.5l-1.9-8.5-2.5-8.4-.6-2.1c-.2-.7-.5-1.4-.7-2.1l-1.5-4.1-1.5-4.1c-.5-1.4-1.1-2.7-1.7-4l-1.7-4c-.6-1.3-1.1-2.7-1.8-4l-4-7.8c-2.9-5-5.8-10.2-9.1-15l-2.4-3.7c-.8-1.2-1.8-2.3-2.6-3.5l-2.7-3.5-1.3-1.8c-.4-.6-.9-1.1-1.4-1.7l-5.7-6.7-6.1-6.4c-8.5-8.3-17.5-15.9-27.2-22.8z"/><path class="st2" d="M386.5 251.2c.8-2.7 2-5.2 3.3-7.7 1.3-2.5 2.8-4.8 4-7.3 2.5-5 4.4-10.2 5.7-15.6 1.4-5.4 2.2-10.9 2.8-16.4.3-2.8.6-5.5.8-8.3l.7-8.4c-.1 5.6-.3 11.2-.7 16.8-.5 5.6-1.3 11.1-2.6 16.6-1.3 5.4-3.3 10.8-5.9 15.7-1.3 2.5-2.9 4.8-4.3 7.2-1.6 2.3-2.9 4.8-3.8 7.4zM384.4 262.3c-2.1.6-4.3-.1-6.1-1-1.9-1-3.5-2.3-5.3-3.5-3.4-2.5-6.7-5.1-9.9-7.8-3.2-2.8-6.3-5.6-9.2-8.5-3-3-5.8-6-8.5-9.3 3 2.9 6 5.9 9 8.7 3.1 2.8 6.2 5.6 9.4 8.3 3.1 2.7 6.4 5.3 9.7 7.9 1.7 1.3 3.3 2.6 5 3.7 1.8 1.1 3.8 1.9 5.9 1.5zM374.8 207.5c-1.1.5-2.4.5-3.6.3-1.2-.3-2.4-.8-3.4-1.3-2.2-1.1-4.3-2.3-6.4-3.4l-6.3-3.6c-2.1-1.3-4.1-2.5-6.1-3.9 2.2 1 4.4 2.1 6.5 3.2 2.1 1.1 4.3 2.3 6.4 3.4l6.3 3.6c1 .6 2.1 1.2 3.2 1.5 1 .4 2.2.5 3.4.2zM375.2 202.3c.2-3.3.4-6.6.5-10 .1-3.3.2-6.6.2-9.9.1-3.3 0-6.6 0-10 0-3.3-.2-6.6-.3-10 .5 3.3.8 6.6 1 9.9.2 3.3.2 6.7.2 10-.1 3.3-.2 6.7-.5 10-.2 3.4-.6 6.7-1.1 10zM354.7 163.9c-.1-2.8-.3-5.5-.7-8.2-.4-2.7-.8-5.4-1.4-8.1-.6-2.7-1.3-5.3-2.1-7.9-.8-2.6-1.8-5.2-2.7-7.8 1.4 2.4 2.5 4.9 3.5 7.5 1 2.6 1.7 5.3 2.4 8 .6 2.7 1 5.5 1.2 8.2.1 2.8.1 5.5-.2 8.3zM351.1 163.3c-3.5-1.2-7-2.5-10.5-3.6-3.5-1.2-7-2.3-10.5-3.5 3.7.5 7.3 1.4 10.8 2.6 3.6 1.2 7 2.6 10.2 4.5zM327.3 131.7c-.6-3.7-1.3-7.3-2.2-10.9-.9-3.6-2-7.1-3.1-10.7 1.9 3.3 3.2 6.8 4.1 10.4.8 3.7 1.3 7.5 1.2 11.2z"/></svg>