<svg width="119" height="137" viewBox="0 0 119 137" xmlns="http://www.w3.org/2000/svg"><path class="guillemets" d="M32.776 112.925c4.177 0 7.19-.884 9.037-2.651 1.848-1.767 3.334-4.66 4.459-8.676.321-2.41.281-4.017-.12-4.82-.402-.803-1.487-1.687-3.254-2.651-.321-.321-.884-.964-1.687-1.928s-1.366-1.446-1.687-1.446c-1.285 0-2.61-.603-3.977-1.808-1.365-1.204-2.57-2.73-3.614-4.578-1.045-1.848-1.848-3.897-2.41-6.146a21.38 21.38 0 01-.603-6.748c.16-1.446.361-3.093.602-4.94.242-1.848.724-3.776 1.447-5.785.723-2.008 1.727-3.976 3.012-5.904a17.212 17.212 0 014.82-4.82c2.089-1.767 3.615-3.173 4.579-4.218.964-1.044 2.57-1.887 4.82-2.53 1.285-.321 2.169-.562 2.651-.723.482-.16 1.607-.402 3.374-.723.643 0 1.125-.08 1.446-.241.321-.16.562-.321.723-.482.643 0 1.245-.562 1.808-1.687a7.973 7.973 0 00.843-3.615c0-1.767-.562-2.972-1.687-3.615-1.125-.643-2.57-.964-4.338-.964-1.125 0-1.888.08-2.29.241-.401.16-2.128.723-5.181 1.687-.964.321-1.807.562-2.53.723a8.858 8.858 0 00-2.049.723c-1.767.321-3.012.803-3.736 1.446-.723.643-1.727 1.446-3.012 2.41a41.889 41.889 0 01-2.29 1.446c-.562.321-1.084.643-1.566.964-.482.321-1.044.803-1.687 1.446-.643.643-1.526 1.607-2.651 2.892-.803 1.285-1.566 2.37-2.29 3.254a32.599 32.599 0 01-2.168 2.41 17.13 17.13 0 00-1.928 2.289c-.563.803-1.085 1.767-1.567 2.892-.803.964-1.486 2.29-2.049 3.977l-1.325 3.976c-.321.964-.522 1.848-.603 2.651-.08.803-.28 1.687-.602 2.651-.321 1.767-.683 3.213-1.085 4.338-.401 1.125-.763 2.57-1.084 4.338-.643 1.446-.602 3.334.12 5.663.724 2.33.924 4.459.603 6.387 0 1.446.16 2.61.482 3.495.321.883.803 1.968 1.446 3.253.321 1.767.683 3.133 1.085 4.097a55.06 55.06 0 001.566 3.374c.803 1.285 1.807 2.21 3.012 2.772a153.75 153.75 0 013.736 1.807 679.323 679.323 0 004.579 2.892c1.285.803 2.892 1.205 4.82 1.205zm43.621 0c4.017 0 7.551-1.205 10.604-3.615 3.053-2.41 5.061-5.704 6.025-9.881.321-2.25.281-4.097-.12-5.543-.402-1.446-1.406-2.731-3.013-3.856-.321-.321-.884-.603-1.687-.844-.803-.24-1.366-.361-1.687-.361-1.125 0-1.928-.241-2.41-.723-.482-.482-1.044-.723-1.687-.723-.321 0-.643.12-.964.361-.321.242-.643.362-.964.362-1.446 0-2.852-.723-4.218-2.169-1.365-1.446-2.49-3.133-3.373-5.061a33.21 33.21 0 01-2.049-5.784c-.482-1.928-.643-3.374-.482-4.338.16-1.285.402-2.892.723-4.82a33.888 33.888 0 011.567-5.905 30.855 30.855 0 012.891-5.904c1.206-1.928 2.852-3.535 4.941-4.82 1.928-1.767 4.057-3.053 6.386-3.856 2.33-.803 4.62-1.526 6.869-2.169 1.285-.321 2.169-.562 2.651-.723.482-.16 1.607-.402 3.374-.723.643 0 1.125-.08 1.446-.241.321-.16.562-.321.723-.482.643 0 1.245-.562 1.808-1.687a7.973 7.973 0 00.843-3.615c0-1.767-.562-2.972-1.687-3.615-1.125-.643-2.57-.964-4.338-.964-1.125 0-1.888.08-2.29.241-.401.16-2.128.723-5.181 1.687-.964.321-1.808.562-2.53.723a8.858 8.858 0 00-2.049.723c-1.767.321-3.013.803-3.736 1.446-.722.643-1.727 1.446-3.012 2.41-.964.643-1.808 1.125-2.53 1.446l-2.17.964c-.722.321-1.526.803-2.41 1.446-.883.643-1.887 1.607-3.012 2.892-.803 1.285-1.607 2.37-2.41 3.254-.803.883-1.526 1.687-2.169 2.41a25.158 25.158 0 00-1.807 2.289c-.563.803-1.085 1.767-1.567 2.892-.803.964-1.486 2.29-2.048 3.977l-1.326 3.976a22.283 22.283 0 00-.723 2.651c-.16.803-.402 1.687-.723 2.651-.321 1.767-.643 3.213-.964 4.338-.321 1.125-.643 2.57-.964 4.338-.321.803-.281 1.566.12 2.29.402.723.603 1.566.603 2.53 0 .964.281 2.008.843 3.133.563 1.125.683 2.49.362 4.097 0 1.446.16 2.61.482 3.495.321.883.884 1.968 1.687 3.253.321 1.767.643 3.133.964 4.097.321.964.884 2.089 1.687 3.374.643 1.285 1.567 2.21 2.772 2.772a238.71 238.71 0 003.976 1.807c1.607 1.125 2.812 2.089 3.615 2.892.803.803 2.25 1.205 4.338 1.205z" fill="#634b7f" fill-rule="nonzero"/></svg>